<?xml version="1.0" standalone="no"?><!DOCTYPE svg PUBLIC "-//W3C//DTD SVG 1.1//EN" "http://www.w3.org/Graphics/SVG/1.1/DTD/svg11.dtd"><svg t="1703594867536" class="icon" viewBox="0 0 1024 1024" version="1.1" xmlns="http://www.w3.org/2000/svg" p-id="24352" width="64" height="64" xmlns:xlink="http://www.w3.org/1999/xlink"><path d="M145.540129 0h566.833548C775.035871 0 825.806452 52.52129 825.806452 117.429677v715.47871c0 32.206452-25.368774 58.467097-56.485162 58.467097a56.485161 56.485161 0 0 1-22.032516-4.459355l-292.996129-127.834839c-13.873548-5.945806-29.662968-5.945806-43.536516 0l-299.206194 128.330323c-28.738065 12.387097-62.232774-1.981935-74.190451-31.710968-2.873806-6.936774-4.294194-14.864516-4.294194-22.296774V117.429677C32.04129 52.52129 82.811871 0 145.507097 0z" fill="#B5D8FE" p-id="24353"></path><path d="M313.806452 247.741935h594.580645v528.51613h-594.580645z" fill="#FFFFFF" p-id="24354"></path><path d="M297.290323 198.193548h594.580645v627.612904H297.290323z" fill="#FFFFFF" p-id="24355"></path><path d="M310.701419 132.129032h566.833549C940.197161 132.129032 990.967742 184.650323 990.967742 249.55871v715.478709c0 32.206452-25.368774 58.467097-56.485161 58.467097a56.485161 56.485161 0 0 1-22.032516-4.459355l-292.99613-127.834838c-13.873548-5.945806-29.662968-5.945806-43.536516 0l-299.206193 128.330322c-28.738065 12.387097-62.232774-1.981935-74.190452-31.710968-2.873806-6.936774-4.294194-14.864516-4.294193-22.296774V249.55871C197.202581 184.650323 247.973161 132.129032 310.668387 132.129032z m283.416775 562.869678l127.834838 64.908387c10.999742 5.450323 24.87329 0.990968 30.12542-10.900645 1.915871-3.963871 2.873806-8.91871 1.915871-13.378065l-20.083613-146.167742 99.559225-105.538064a24.047484 24.047484 0 0 0-0.495483-33.19742 23.84929 23.84929 0 0 0-11.957678-6.44129l-140.254968-24.774194-66.56-130.312258a22.461935 22.461935 0 0 0-30.620903-9.909677 23.452903 23.452903 0 0 0-9.579355 9.909677L507.474581 419.509677l-140.288 24.774194c-12.453161 1.981935-20.579097 14.369032-18.663226 27.251613 0.957935 4.459355 2.873806 8.91871 6.210064 12.387097l99.592258 106.033548-20.116645 146.167742c-1.915871 12.882581 6.705548 24.774194 19.15871 26.756129a25.434839 25.434839 0 0 0 13.411097-1.981935l127.339355-65.899355z" fill="#4D73E5" p-id="24356"></path></svg>